<?xml version="1.0" encoding="utf-8"?>
<!-- Generator: Adobe Illustrator 25.2.0, SVG Export Plug-In . SVG Version: 6.00 Build 0)  -->
<svg version="1.1" id="Layer_1" xmlns="http://www.w3.org/2000/svg" xmlns:xlink="http://www.w3.org/1999/xlink" x="0px" y="0px"
	 viewBox="0 0 339.46 88.88" style="enable-background:new 0 0 339.46 88.88;" xml:space="preserve">
<style type="text/css">
	.st0{fill:#010101;}
	.st1{fill:#FFFFFF;}
	.st2{fill:none;}
</style>
<rect x="0.55" y="0.16" class="st0" width="338.97" height="89.94"/>
<g>
	<path class="st1" d="M76.98,26.59c-1.55,0-2.5,0.72-2.5,1.87c0,3.08,8.84,1.33,8.84,7.7c0,2.64-2.14,4.72-6.47,4.72
		c-3.53,0-5.91-1.54-6.86-2.36l2.14-2.62c0.8,0.72,2.6,2.03,4.82,2.03c1.83,0,2.73-0.64,2.73-1.69c0-3.39-8.87-1.59-8.87-7.57
		c0-2.85,2.42-5.08,6.09-5.08c4.54,0,5.93,2.62,6.32,4.44l-3.27,0.8C79.87,27.93,78.97,26.59,76.98,26.59z"/>
	<path class="st1" d="M100.14,23.77v10.27c0,4.18-2.86,6.85-7.09,6.85c-4.28,0-7.14-2.67-7.14-6.85V23.77h3.66v10.24
		c0,2.36,1.42,3.72,3.48,3.72c2.04,0,3.43-1.36,3.43-3.7V23.77H100.14z"/>
	<path class="st1" d="M109.27,26.59c-1.55,0-2.5,0.72-2.5,1.87c0,3.08,8.84,1.33,8.84,7.7c0,2.64-2.14,4.72-6.47,4.72
		c-3.53,0-5.9-1.54-6.86-2.36l2.14-2.62c0.8,0.72,2.6,2.03,4.82,2.03c1.83,0,2.73-0.64,2.73-1.69c0-3.39-8.87-1.59-8.87-7.57
		c0-2.85,2.42-5.08,6.09-5.08c4.54,0,5.93,2.62,6.32,4.44l-3.27,0.8C112.15,27.93,111.25,26.59,109.27,26.59z"/>
	<path class="st1" d="M121.62,26.77h-5.18v-3h14.03v3h-5.18v13.94h-3.66V26.77z"/>
	<path class="st1" d="M140.31,37.09h-6.16l-1.19,3.62h-3.74l6.03-16.94h3.95l6.01,16.94h-3.71L140.31,37.09z M139.44,34.35
		l-1.65-5.03c-0.18-0.54-0.39-1.28-0.52-1.93h-0.08c-0.1,0.64-0.34,1.39-0.52,1.95l-1.62,5.01H139.44z"/>
	<path class="st1" d="M147.12,23.77h3.58v16.94h-3.58V23.77z"/>
	<path class="st1" d="M168.78,40.71h-3.48l-5.49-8.16c-0.67-1.03-1.55-2.49-1.96-3.16l-0.15,0.08c0.1,0.38,0.13,1.69,0.13,3.05
		l0.03,8.19h-3.53V23.77h3.25l5.75,8.57c0.88,1.31,1.65,2.7,1.93,3.21l0.15-0.08c-0.08-0.46-0.15-1.75-0.15-3.16l-0.03-8.55h3.56
		V40.71z"/>
	<path class="st1" d="M181.75,37.09h-6.16l-1.19,3.62h-3.74l6.03-16.94h3.95l6.01,16.94h-3.71L181.75,37.09z M180.88,34.35
		l-1.65-5.03c-0.18-0.54-0.39-1.28-0.52-1.93h-0.08c-0.1,0.64-0.34,1.39-0.52,1.95l-1.62,5.01H180.88z"/>
	<path class="st1" d="M201.76,36.12c0,2.95-2.11,4.6-5.85,4.6h-7.35V23.77h6.73c3.64,0,5.8,1.69,5.8,4.6c0,2.57-1.81,3.31-2.78,3.47
		v0.08C199.47,32.09,201.76,33.24,201.76,36.12z M194.52,26.52h-2.37v4.29h2.58c1.73,0,2.68-0.82,2.68-2.11
		C197.41,27.31,196.45,26.52,194.52,26.52z M198.08,35.71c0-1.57-1.29-2.36-3.02-2.36h-2.91v4.62h3.12
		C196.92,37.97,198.08,37.25,198.08,35.71z"/>
	<path class="st1" d="M215.84,37.71v3H204.5V23.77h3.66v13.94H215.84z"/>
	<path class="st1" d="M221.6,26.77v3.9h6.6v2.85h-6.6v4.18h7.61v3h-11.27V23.77h11.27v3H221.6z"/>
	<path class="st1" d="M76.98,49.78c-1.55,0-2.5,0.72-2.5,1.87c0,3.08,8.84,1.33,8.84,7.7c0,2.64-2.14,4.72-6.47,4.72
		c-3.53,0-5.91-1.54-6.86-2.36l2.14-2.62c0.8,0.72,2.6,2.03,4.82,2.03c1.83,0,2.73-0.64,2.73-1.69c0-3.39-8.87-1.59-8.87-7.57
		c0-2.85,2.42-5.08,6.09-5.08c4.54,0,5.93,2.62,6.32,4.44l-3.27,0.8C79.87,51.12,78.97,49.78,76.98,49.78z"/>
	<path class="st1" d="M100.01,63.9c0,0-0.67,0.18-1.88,0.18c-5.18,0-3.76-5.98-7.61-5.98h-0.77v5.8h-3.66V46.96h5.78
		c4.44,0,6.81,1.75,6.81,5.72c0,2.36-1.26,3.95-3.43,4.77c1.83,0.85,1.88,3.7,4.02,3.7c0.28,0,0.52-0.05,0.52-0.05L100.01,63.9z
		 M91.37,55.53c2.19,0,3.69-1,3.69-2.82c0-1.9-1.24-2.88-3.4-2.88h-1.91v5.7H91.37z"/>
	<path class="st1" d="M102.23,46.96h3.58V63.9h-3.58V46.96z"/>
	<path class="st1" d="M124.75,60.9v3h-11.35V46.96h3.66V60.9H124.75z"/>
	<path class="st1" d="M136.2,60.28h-6.16l-1.19,3.62h-3.74l6.03-16.94h3.95l6.01,16.94h-3.71L136.2,60.28z M135.33,57.53l-1.65-5.03
		c-0.18-0.54-0.39-1.28-0.52-1.93h-0.08c-0.1,0.64-0.34,1.39-0.52,1.95l-1.62,5.01H135.33z"/>
	<path class="st1" d="M157.48,63.9H154l-5.49-8.16c-0.67-1.03-1.55-2.49-1.96-3.16l-0.15,0.08c0.1,0.38,0.13,1.69,0.13,3.05
		l0.03,8.19h-3.53V46.96h3.25l5.75,8.57c0.88,1.31,1.65,2.7,1.93,3.21l0.15-0.08c-0.08-0.46-0.15-1.75-0.15-3.16l-0.03-8.55h3.56
		V63.9z"/>
	<path class="st1" d="M166.55,57.25h-1.81v6.65h-3.66V46.96h3.66v7.39h1.57l4.82-7.39h3.79l-5.88,8.68l5.93,8.27h-3.84L166.55,57.25
		z"/>
	<path class="st1" d="M186.2,60.28h-6.16l-1.19,3.62h-3.74l6.03-16.94h3.95l6.01,16.94h-3.71L186.2,60.28z M185.33,57.53l-1.65-5.03
		c-0.18-0.54-0.39-1.28-0.52-1.93h-0.08c-0.1,0.64-0.34,1.39-0.52,1.95l-1.62,5.01H185.33z"/>
</g>
<g>
	<g>
		<path class="st1" d="M44.23,70.82c-6.31,0-11.45-5.14-11.45-11.45c0-5.97,9.42-15.32,10.49-16.37l0.96-0.93l0.96,0.93
			c1.07,1.05,10.49,10.4,10.49,16.37C55.68,65.69,50.54,70.82,44.23,70.82z M44.23,45.93c-3.1,3.21-8.71,9.78-8.71,13.45
			c0,4.8,3.91,8.71,8.71,8.71s8.71-3.91,8.71-8.71C52.94,55.71,47.33,49.14,44.23,45.93z"/>
	</g>
	<path class="st1" d="M52.24,59.62c0-3.56-5.45-9.52-8.62-13.04c-0.48,0.48-1.1,1.04-1.67,1.66c3.07,3.15,8,8.91,8,12.19
		c0,3.39-2.13,6.3-5.16,7.55C49,67.37,52.24,63.86,52.24,59.62z"/>
	<g>
		<path class="st1" d="M39.76,16.71c6.31,0,11.45,5.14,11.45,11.45c0,5.97-9.42,15.32-10.49,16.37l-0.96,0.93l-0.96-0.93
			c-1.07-1.05-10.49-10.4-10.49-16.37C28.31,21.85,33.45,16.71,39.76,16.71z M39.76,41.61c3.1-3.21,8.71-9.78,8.71-13.45
			c0-4.8-3.91-8.71-8.71-8.71s-8.71,3.91-8.71,8.71C31.05,31.83,36.67,38.4,39.76,41.61z"/>
	</g>
	<path class="st1" d="M31.76,27.92c0,3.56,5.45,9.52,8.62,13.04c0.48-0.48,1.1-1.04,1.67-1.66c-3.07-3.15-8-8.91-8-12.19
		c0-3.39,2.13-6.3,5.16-7.55C35,20.16,31.76,23.68,31.76,27.92z"/>
</g>
<rect id="_x3C_Slice_x3E_" x="-0.76" y="-1" class="st2" width="340" height="92"/>
</svg>
