<?xml version="1.0" encoding="utf-8"?>
<!-- Generator: Adobe Illustrator 25.2.0, SVG Export Plug-In . SVG Version: 6.00 Build 0)  -->
<svg version="1.1" id="Layer_1" xmlns="http://www.w3.org/2000/svg" xmlns:xlink="http://www.w3.org/1999/xlink" x="0px" y="0px"
	 viewBox="0 0 76.31 144.37" style="enable-background:new 0 0 76.31 144.37;" xml:space="preserve">
<style type="text/css">
	.st0{fill:#FFFFFF;}
</style>
<g>
	<g>
		<path class="st0" d="M43.86,142.36c-16.34,0-29.64-13.3-29.64-29.64c0-15.46,24.38-39.67,27.16-42.38l2.48-2.41l2.48,2.41
			c2.78,2.71,27.16,26.93,27.16,42.38C73.49,129.06,60.2,142.36,43.86,142.36z M43.86,77.91c-8.02,8.31-22.55,25.32-22.55,34.81
			c0,12.43,10.11,22.55,22.55,22.55s22.55-10.11,22.55-22.55C66.4,103.22,51.87,86.21,43.86,77.91z"/>
	</g>
	<path class="st0" d="M64.59,113.34c0-9.21-14.11-24.65-22.32-33.77c-1.24,1.24-2.85,2.7-4.32,4.29
		c7.94,8.15,20.72,23.06,20.72,31.57c0,8.77-5.51,16.31-13.36,19.53C56.2,133.42,64.59,124.31,64.59,113.34z"/>
	<g>
		<path class="st0" d="M32.29,2.27c16.34,0,29.64,13.3,29.64,29.64c0,15.46-24.38,39.67-27.16,42.38l-2.48,2.41l-2.48-2.41
			C27.03,71.58,2.65,47.36,2.65,31.9C2.65,15.56,15.95,2.27,32.29,2.27z M32.29,66.72c8.02-8.31,22.55-25.32,22.55-34.81
			c0-12.43-10.11-22.55-22.55-22.55S9.74,19.47,9.74,31.9C9.74,41.4,24.27,58.41,32.29,66.72z"/>
	</g>
	<path class="st0" d="M11.56,31.29c0,9.21,14.11,24.65,22.32,33.77c1.24-1.24,2.85-2.7,4.32-4.29
		c-7.94-8.15-20.72-23.06-20.72-31.57c0-8.77,5.51-16.31,13.36-19.53C19.95,11.2,11.56,20.31,11.56,31.29z"/>
</g>
</svg>
